<svg width="32" height="32" viewBox="0 0 32 32" fill="none" xmlns="http://www.w3.org/2000/svg">
<path d="M5.33337 26V5.99999C5.33337 5.11593 5.68456 4.26809 6.30968 3.64297C6.93481 3.01785 7.78265 2.66666 8.66671 2.66666H25.3334C25.687 2.66666 26.0261 2.80713 26.2762 3.05718C26.5262 3.30723 26.6667 3.64637 26.6667 3.99999V28C26.6667 28.3536 26.5262 28.6927 26.2762 28.9428C26.0261 29.1928 25.687 29.3333 25.3334 29.3333H8.66671C7.78265 29.3333 6.93481 28.9821 6.30968 28.357C5.68456 27.7319 5.33337 26.884 5.33337 26ZM5.33337 26C5.33337 25.1159 5.68456 24.2681 6.30968 23.643C6.93481 23.0178 7.78265 22.6667 8.66671 22.6667H26.6667" stroke="#FCA47C" stroke-width="2.66667" stroke-linecap="round" stroke-linejoin="round"/>
</svg>
