<svg width="32" height="32" viewBox="0 0 32 32" fill="none" xmlns="http://www.w3.org/2000/svg">
<path d="M8.00001 29.3334C7.29277 29.3334 6.61449 29.0524 6.11439 28.5523C5.61429 28.0522 5.33334 27.3739 5.33334 26.6667V5.33336C5.33334 4.62611 5.61429 3.94784 6.11439 3.44774C6.61449 2.94764 7.29277 2.66669 8.00001 2.66669H18.6667C19.0887 2.66601 19.5068 2.74883 19.8967 2.91038C20.2866 3.07194 20.6408 3.30904 20.9387 3.60802L25.7227 8.39203C26.0225 8.69003 26.2602 9.04448 26.4223 9.43491C26.5843 9.82533 26.6674 10.244 26.6667 10.6667V26.6667C26.6667 27.3739 26.3857 28.0522 25.8856 28.5523C25.3855 29.0524 24.7073 29.3334 24 29.3334H8.00001Z" stroke="#F9D779" stroke-width="2.66667" stroke-linecap="round" stroke-linejoin="round"/>
<path d="M18.6667 2.66669V9.33335C18.6667 9.68698 18.8071 10.0261 19.0572 10.2762C19.3072 10.5262 19.6464 10.6667 20 10.6667H26.6667" stroke="#F9D779" stroke-width="2.66667" stroke-linecap="round" stroke-linejoin="round"/>
<path d="M12 20L14.6667 22.6666L20 17.3333" stroke="#F9D779" stroke-width="2.66667" stroke-linecap="round" stroke-linejoin="round"/>
</svg>
