<svg width="20" height="20" viewBox="0 0 20 20" fill="none" xmlns="http://www.w3.org/2000/svg">
<path d="M5.00001 18.3333C4.55798 18.3333 4.13406 18.1577 3.8215 17.8452C3.50894 17.5326 3.33334 17.1087 3.33334 16.6667V3.33334C3.33334 2.89131 3.50894 2.46739 3.8215 2.15483C4.13406 1.84227 4.55798 1.66667 5.00001 1.66667H11.6667C11.9305 1.66625 12.1917 1.71801 12.4355 1.81898C12.6792 1.91995 12.9005 2.06814 13.0867 2.25501L16.0767 5.24501C16.264 5.43126 16.4127 5.6528 16.5139 5.89681C16.6152 6.14082 16.6671 6.40248 16.6667 6.66667V16.6667C16.6667 17.1087 16.4911 17.5326 16.1785 17.8452C15.866 18.1577 15.442 18.3333 15 18.3333H5.00001Z" stroke="#CDCDCD" stroke-width="1.66667" stroke-linecap="round" stroke-linejoin="round"/>
<path d="M11.6667 1.66667V5.83334C11.6667 6.05435 11.7545 6.26631 11.9107 6.42259C12.067 6.57887 12.279 6.66667 12.5 6.66667H16.6667" stroke="#CDCDCD" stroke-width="1.66667" stroke-linecap="round" stroke-linejoin="round"/>
<path d="M8.33332 7.5H6.66666" stroke="#CDCDCD" stroke-width="1.66667" stroke-linecap="round" stroke-linejoin="round"/>
<path d="M13.3333 10.8333H6.66666" stroke="#CDCDCD" stroke-width="1.66667" stroke-linecap="round" stroke-linejoin="round"/>
<path d="M13.3333 14.1667H6.66666" stroke="#CDCDCD" stroke-width="1.66667" stroke-linecap="round" stroke-linejoin="round"/>
</svg>
