<svg width="32" height="32" viewBox="0 0 32 32" fill="none" xmlns="http://www.w3.org/2000/svg">
<path d="M7.99999 29.3333C7.29275 29.3333 6.61447 29.0523 6.11438 28.5522C5.61428 28.0522 5.33333 27.3739 5.33333 26.6666V5.3333C5.33333 4.62605 5.61428 3.94778 6.11438 3.44768C6.61447 2.94758 7.29275 2.66663 7.99999 2.66663H18.6667C19.0887 2.66595 19.5068 2.74877 19.8967 2.91032C20.2866 3.07188 20.6407 3.30898 20.9387 3.60796L25.7227 8.39196C26.0224 8.68997 26.2602 9.04442 26.4223 9.43485C26.5843 9.82527 26.6673 10.2439 26.6667 10.6666V26.6666C26.6667 27.3739 26.3857 28.0522 25.8856 28.5522C25.3855 29.0523 24.7072 29.3333 24 29.3333H7.99999Z" stroke="#7EDEE4" stroke-width="2.66667" stroke-linecap="round" stroke-linejoin="round"/>
<path d="M18.6667 2.66663V9.33329C18.6667 9.68691 18.8071 10.0261 19.0572 10.2761C19.3072 10.5262 19.6464 10.6666 20 10.6666H26.6667" stroke="#7EDEE4" stroke-width="2.66667" stroke-linecap="round" stroke-linejoin="round"/>
<path d="M13.3333 12H10.6667" stroke="#7EDEE4" stroke-width="2.66667" stroke-linecap="round" stroke-linejoin="round"/>
<path d="M21.3333 17.3334H10.6667" stroke="#7EDEE4" stroke-width="2.66667" stroke-linecap="round" stroke-linejoin="round"/>
<path d="M21.3333 22.6666H10.6667" stroke="#7EDEE4" stroke-width="2.66667" stroke-linecap="round" stroke-linejoin="round"/>
</svg>
