<svg width="16" height="16" viewBox="0 0 16 16" fill="none" xmlns="http://www.w3.org/2000/svg">
<path d="M7.33331 1.33337V2.66671" stroke="#99A1AF" stroke-width="1.33333" stroke-linecap="round" stroke-linejoin="round"/>
<path d="M3.33331 1.33337V2.66671" stroke="#99A1AF" stroke-width="1.33333" stroke-linecap="round" stroke-linejoin="round"/>
<path d="M3.33331 2H2.66665C2.31302 2 1.97389 2.14048 1.72384 2.39052C1.47379 2.64057 1.33331 2.97971 1.33331 3.33333V6C1.33331 7.06087 1.75474 8.07828 2.50489 8.82843C3.25503 9.57857 4.27245 10 5.33331 10C6.39418 10 7.41159 9.57857 8.16174 8.82843C8.91189 8.07828 9.33331 7.06087 9.33331 6V3.33333C9.33331 2.97971 9.19284 2.64057 8.94279 2.39052C8.69274 2.14048 8.3536 2 7.99998 2H7.33331" stroke="#99A1AF" stroke-width="1.33333" stroke-linecap="round" stroke-linejoin="round"/>
<path d="M5.33331 10C5.33331 11.0609 5.75474 12.0783 6.50489 12.8284C7.25503 13.5786 8.27245 14 9.33331 14C10.3942 14 11.4116 13.5786 12.1617 12.8284C12.9119 12.0783 13.3333 11.0609 13.3333 10V8" stroke="#99A1AF" stroke-width="1.33333" stroke-linecap="round" stroke-linejoin="round"/>
<path d="M13.3333 8.00004C14.0697 8.00004 14.6667 7.40309 14.6667 6.66671C14.6667 5.93033 14.0697 5.33337 13.3333 5.33337C12.597 5.33337 12 5.93033 12 6.66671C12 7.40309 12.597 8.00004 13.3333 8.00004Z" stroke="#99A1AF" stroke-width="1.33333" stroke-linecap="round" stroke-linejoin="round"/>
</svg>
