<svg width="16" height="16" viewBox="0 0 16 16" fill="none" xmlns="http://www.w3.org/2000/svg">
<path d="M8 2H3.33333C2.97971 2 2.64057 2.14048 2.39052 2.39052C2.14048 2.64057 2 2.97971 2 3.33333V12.6667C2 13.0203 2.14048 13.3594 2.39052 13.6095C2.64057 13.8595 2.97971 14 3.33333 14H12.6667C13.0203 14 13.3594 13.8595 13.6095 13.6095C13.8595 13.3594 14 13.0203 14 12.6667V8" stroke="#101828" stroke-width="1.33333" stroke-linecap="round" stroke-linejoin="round"/>
<path d="M12.25 1.75C12.5152 1.48478 12.8749 1.33578 13.25 1.33578C13.625 1.33578 13.9847 1.48478 14.25 1.75C14.5152 2.01521 14.6642 2.37493 14.6642 2.75C14.6642 3.12507 14.5152 3.48478 14.25 3.75L8.24129 9.75933C8.08299 9.9175 7.88743 10.0333 7.67263 10.096L5.75729 10.656C5.69993 10.6727 5.63912 10.6737 5.58123 10.6589C5.52335 10.6441 5.47051 10.614 5.42826 10.5717C5.386 10.5294 5.35589 10.4766 5.34106 10.4187C5.32623 10.3608 5.32723 10.3 5.34396 10.2427L5.90396 8.32733C5.96698 8.1127 6.08298 7.91737 6.24129 7.75933L12.25 1.75Z" stroke="#101828" stroke-width="1.33333" stroke-linecap="round" stroke-linejoin="round"/>
</svg>
