<svg width="20" height="24" viewBox="0 0 20 24" fill="none" xmlns="http://www.w3.org/2000/svg">
<path d="M1.71835 12.348C1.6489 12.1235 1.6489 11.8765 1.71835 11.652C2.39476 9.68385 3.54294 8.00103 5.01732 6.81689C6.4917 5.63275 8.22588 5.00061 10 5.00061C11.7741 5.00061 13.5083 5.63275 14.9827 6.81689C16.4571 8.00103 17.6053 9.68385 18.2817 11.652C18.3511 11.8765 18.3511 12.1235 18.2817 12.348C17.6053 14.3161 16.4571 15.999 14.9827 17.1831C13.5083 18.3672 11.7741 18.9994 10 18.9994C8.22588 18.9994 6.4917 18.3672 5.01732 17.1831C3.54294 15.999 2.39476 14.3161 1.71835 12.348Z" stroke="#101828" stroke-width="1.66667" stroke-linecap="round" stroke-linejoin="round"/>
<path d="M10 15C11.3807 15 12.5 13.6569 12.5 12C12.5 10.3431 11.3807 9 10 9C8.61929 9 7.5 10.3431 7.5 12C7.5 13.6569 8.61929 15 10 15Z" stroke="#101828" stroke-width="1.66667" stroke-linecap="round" stroke-linejoin="round"/>
</svg>
