<svg width="16" height="16" viewBox="0 0 16 16" fill="none" xmlns="http://www.w3.org/2000/svg">
<g clip-path="url(#clip0_67_448)">
<path d="M8 6.66669H8.00667" stroke="#364153" stroke-width="1.33333" stroke-linecap="round" stroke-linejoin="round"/>
<path d="M8 9.33331H8.00667" stroke="#364153" stroke-width="1.33333" stroke-linecap="round" stroke-linejoin="round"/>
<path d="M8 4H8.00667" stroke="#364153" stroke-width="1.33333" stroke-linecap="round" stroke-linejoin="round"/>
<path d="M10.6667 6.66669H10.6734" stroke="#364153" stroke-width="1.33333" stroke-linecap="round" stroke-linejoin="round"/>
<path d="M10.6667 9.33331H10.6734" stroke="#364153" stroke-width="1.33333" stroke-linecap="round" stroke-linejoin="round"/>
<path d="M10.6667 4H10.6734" stroke="#364153" stroke-width="1.33333" stroke-linecap="round" stroke-linejoin="round"/>
<path d="M5.33331 6.66669H5.33998" stroke="#364153" stroke-width="1.33333" stroke-linecap="round" stroke-linejoin="round"/>
<path d="M5.33331 9.33331H5.33998" stroke="#364153" stroke-width="1.33333" stroke-linecap="round" stroke-linejoin="round"/>
<path d="M5.33331 4H5.33998" stroke="#364153" stroke-width="1.33333" stroke-linecap="round" stroke-linejoin="round"/>
<path d="M6 14.6667V12.6667C6 12.4899 6.07024 12.3203 6.19526 12.1953C6.32029 12.0702 6.48986 12 6.66667 12H9.33333C9.51014 12 9.67971 12.0702 9.80474 12.1953C9.92976 12.3203 10 12.4899 10 12.6667V14.6667" stroke="#364153" stroke-width="1.33333" stroke-linecap="round" stroke-linejoin="round"/>
<path d="M12 1.33331H4.00002C3.26364 1.33331 2.66669 1.93027 2.66669 2.66665V13.3333C2.66669 14.0697 3.26364 14.6666 4.00002 14.6666H12C12.7364 14.6666 13.3334 14.0697 13.3334 13.3333V2.66665C13.3334 1.93027 12.7364 1.33331 12 1.33331Z" stroke="#364153" stroke-width="1.33333" stroke-linecap="round" stroke-linejoin="round"/>
</g>
<defs>
<clipPath id="clip0_67_448">
<rect width="16" height="16" fill="white"/>
</clipPath>
</defs>
</svg>
