<svg width="32" height="32" viewBox="0 0 32 32" fill="none" xmlns="http://www.w3.org/2000/svg">
<path d="M26.6666 13.3334C26.6666 19.9907 19.2813 26.924 16.8013 29.0654C16.5702 29.2391 16.289 29.333 15.9999 29.333C15.7109 29.333 15.4296 29.2391 15.1986 29.0654C12.7186 26.924 5.33325 19.9907 5.33325 13.3334C5.33325 10.5044 6.45706 7.79127 8.45745 5.79088C10.4578 3.79049 13.1709 2.66669 15.9999 2.66669C18.8289 2.66669 21.542 3.79049 23.5424 5.79088C25.5428 7.79127 26.6666 10.5044 26.6666 13.3334Z" stroke="#FCA47C" stroke-width="2.66667" stroke-linecap="round" stroke-linejoin="round"/>
<path d="M16 17.3333C18.2091 17.3333 20 15.5425 20 13.3333C20 11.1242 18.2091 9.33331 16 9.33331C13.7909 9.33331 12 11.1242 12 13.3333C12 15.5425 13.7909 17.3333 16 17.3333Z" stroke="#FCA47C" stroke-width="2.66667" stroke-linecap="round" stroke-linejoin="round"/>
</svg>
