<svg width="16" height="16" viewBox="0 0 16 16" fill="none" xmlns="http://www.w3.org/2000/svg">
<path d="M13.3333 6.66668C13.3333 9.99534 9.64066 13.462 8.40066 14.5327C8.28514 14.6195 8.14452 14.6665 7.99999 14.6665C7.85546 14.6665 7.71484 14.6195 7.59932 14.5327C6.35932 13.462 2.66666 9.99534 2.66666 6.66668C2.66666 5.25219 3.22856 3.89563 4.22875 2.89544C5.22895 1.89525 6.5855 1.33334 7.99999 1.33334C9.41448 1.33334 10.771 1.89525 11.7712 2.89544C12.7714 3.89563 13.3333 5.25219 13.3333 6.66668Z" stroke="#1E2939" stroke-width="1.33333" stroke-linecap="round" stroke-linejoin="round"/>
<path d="M8 8.66666C9.10457 8.66666 10 7.77123 10 6.66666C10 5.56209 9.10457 4.66666 8 4.66666C6.89543 4.66666 6 5.56209 6 6.66666C6 7.77123 6.89543 8.66666 8 8.66666Z" stroke="#1E2939" stroke-width="1.33333" stroke-linecap="round" stroke-linejoin="round"/>
</svg>
