<svg width="32" height="32" viewBox="0 0 32 32" fill="none" xmlns="http://www.w3.org/2000/svg">
<path d="M20.6359 17.1867L22.6559 28.5547C22.6785 28.6886 22.6598 28.8261 22.6021 28.949C22.5444 29.0719 22.4506 29.1743 22.3332 29.2424C22.2157 29.3106 22.0803 29.3412 21.945 29.3303C21.8097 29.3194 21.6809 29.2674 21.5759 29.1814L16.8026 25.5987C16.5721 25.4266 16.2922 25.3335 16.0046 25.3335C15.7169 25.3335 15.437 25.4266 15.2066 25.5987L10.4252 29.18C10.3203 29.266 10.1917 29.3178 10.0566 29.3288C9.92142 29.3397 9.78614 29.3091 9.6688 29.2412C9.55145 29.1733 9.45761 29.0711 9.3998 28.9485C9.34199 28.8258 9.32296 28.6885 9.34525 28.5547L11.3639 17.1867" stroke="#FCA47C" stroke-width="2.66667" stroke-linecap="round" stroke-linejoin="round"/>
<path d="M16 18.6667C20.4183 18.6667 24 15.085 24 10.6667C24 6.24841 20.4183 2.66669 16 2.66669C11.5817 2.66669 8 6.24841 8 10.6667C8 15.085 11.5817 18.6667 16 18.6667Z" stroke="#FCA47C" stroke-width="2.66667" stroke-linecap="round" stroke-linejoin="round"/>
</svg>
