<svg width="40" height="40" viewBox="0 0 40 40" fill="none" xmlns="http://www.w3.org/2000/svg">
<path d="M25.7951 21.4834L28.3201 35.6934C28.3484 35.8607 28.3249 36.0327 28.2528 36.1863C28.1807 36.3399 28.0634 36.4679 27.9166 36.5531C27.7698 36.6382 27.6006 36.6766 27.4314 36.6629C27.2623 36.6493 27.1013 36.5843 26.9701 36.4767L21.0034 31.9984C20.7154 31.7832 20.3655 31.6669 20.0059 31.6669C19.6464 31.6669 19.2964 31.7832 19.0084 31.9984L13.0317 36.4751C12.9006 36.5825 12.7398 36.6473 12.5709 36.661C12.402 36.6746 12.2329 36.6364 12.0862 36.5515C11.9395 36.4666 11.8222 36.3389 11.7499 36.1856C11.6777 36.0323 11.6539 35.8606 11.6817 35.6934L14.2051 21.4834" stroke="#FFA239" stroke-width="3.33333" stroke-linecap="round" stroke-linejoin="round"/>
<path d="M20 23.3334C25.5228 23.3334 30 18.8562 30 13.3334C30 7.81053 25.5228 3.33337 20 3.33337C14.4772 3.33337 10 7.81053 10 13.3334C10 18.8562 14.4772 23.3334 20 23.3334Z" stroke="#FFA239" stroke-width="3.33333" stroke-linecap="round" stroke-linejoin="round"/>
</svg>
