<svg width="20" height="20" viewBox="0 0 20 20" fill="none" xmlns="http://www.w3.org/2000/svg">
<g clip-path="url(#clip0_136_6065)">
<path d="M9.16667 5.00001C10.0871 5.00001 10.8333 4.25381 10.8333 3.33334C10.8333 2.41286 10.0871 1.66667 9.16667 1.66667C8.24619 1.66667 7.5 2.41286 7.5 3.33334C7.5 4.25381 8.24619 5.00001 9.16667 5.00001Z" stroke="#016630" stroke-width="1.66667" stroke-linecap="round" stroke-linejoin="round"/>
<path d="M15.0002 8.33333C15.9206 8.33333 16.6668 7.58714 16.6668 6.66667C16.6668 5.74619 15.9206 5 15.0002 5C14.0797 5 13.3335 5.74619 13.3335 6.66667C13.3335 7.58714 14.0797 8.33333 15.0002 8.33333Z" stroke="#016630" stroke-width="1.66667" stroke-linecap="round" stroke-linejoin="round"/>
<path d="M16.6667 15C17.5871 15 18.3333 14.2538 18.3333 13.3333C18.3333 12.4129 17.5871 11.6667 16.6667 11.6667C15.7462 11.6667 15 12.4129 15 13.3333C15 14.2538 15.7462 15 16.6667 15Z" stroke="#016630" stroke-width="1.66667" stroke-linecap="round" stroke-linejoin="round"/>
<path d="M7.50012 8.33333C8.04729 8.33333 8.58911 8.4411 9.09463 8.6505C9.60015 8.85989 10.0595 9.16681 10.4464 9.55372C10.8333 9.94063 11.1402 10.4 11.3496 10.9055C11.559 11.411 11.6668 11.9528 11.6668 12.5V15.4167C11.6666 16.1137 11.4167 16.7876 10.9625 17.3164C10.5082 17.8451 9.87966 18.1937 9.19061 18.2989C8.50155 18.4042 7.79758 18.2592 7.20619 17.8902C6.61481 17.5213 6.17513 16.9527 5.96678 16.2875C5.61123 15.1403 4.86123 14.3889 3.71678 14.0333C3.05194 13.8251 2.48359 13.3857 2.11458 12.7948C1.74558 12.2039 1.6003 11.5003 1.70502 10.8116C1.80975 10.1228 2.15757 9.49424 2.68554 9.03967C3.21351 8.58511 3.88676 8.33455 4.58345 8.33333H7.50012Z" stroke="#016630" stroke-width="1.66667" stroke-linecap="round" stroke-linejoin="round"/>
</g>
<defs>
<clipPath id="clip0_136_6065">
<rect width="20" height="20" fill="white"/>
</clipPath>
</defs>
</svg>
