<svg width="80" height="84" viewBox="0 0 80 84" fill="none" xmlns="http://www.w3.org/2000/svg">
<path d="M36.6667 21C40.3486 21 43.3333 17.866 43.3333 14C43.3333 10.134 40.3486 7 36.6667 7C32.9848 7 30 10.134 30 14C30 17.866 32.9848 21 36.6667 21Z" stroke="white" stroke-width="2" stroke-linecap="round" stroke-linejoin="round"/>
<path d="M60 35C63.6819 35 66.6667 31.866 66.6667 28C66.6667 24.134 63.6819 21 60 21C56.3181 21 53.3333 24.134 53.3333 28C53.3333 31.866 56.3181 35 60 35Z" stroke="white" stroke-width="2" stroke-linecap="round" stroke-linejoin="round"/>
<path d="M66.6667 63C70.3486 63 73.3333 59.866 73.3333 56C73.3333 52.134 70.3486 49 66.6667 49C62.9848 49 60 52.134 60 56C60 59.866 62.9848 63 66.6667 63Z" stroke="white" stroke-width="2" stroke-linecap="round" stroke-linejoin="round"/>
<path d="M30 35C32.1887 35 34.356 35.4526 36.3781 36.3321C38.4002 37.2116 40.2375 38.5006 41.7851 40.1256C43.3328 41.7507 44.5604 43.6798 45.398 45.803C46.2356 47.9262 46.6667 50.2019 46.6667 52.5V64.75C46.6658 67.6776 45.6663 70.5081 43.8494 72.7287C42.0325 74.9494 39.5182 76.4134 36.762 76.8555C34.0057 77.2977 31.1898 76.6887 28.8243 75.139C26.4588 73.5893 24.7 71.2013 23.8667 68.4075C22.4444 63.5892 19.4444 60.4333 14.8667 58.94C12.2073 58.0654 9.93389 56.2202 8.45787 53.7382C6.98185 51.2562 6.40072 48.3014 6.81962 45.4086C7.23853 42.5157 8.6298 39.8758 10.7417 37.9667C12.8536 36.0575 15.5466 35.0051 18.3333 35H30Z" stroke="white" stroke-width="2" stroke-linecap="round" stroke-linejoin="round"/>
</svg>
