<svg width="16" height="16" viewBox="0 0 16 16" fill="none" xmlns="http://www.w3.org/2000/svg">
<g clip-path="url(#clip0_147_2635)">
<path d="M3.99992 12H2.66659C2.31296 12 1.97382 11.8595 1.72378 11.6095C1.47373 11.3594 1.33325 11.0203 1.33325 10.6667V7.33333C1.33325 6.97971 1.47373 6.64057 1.72378 6.39052C1.97382 6.14048 2.31296 6 2.66659 6H13.3333C13.6869 6 14.026 6.14048 14.2761 6.39052C14.5261 6.64057 14.6666 6.97971 14.6666 7.33333V10.6667C14.6666 11.0203 14.5261 11.3594 14.2761 11.6095C14.026 11.8595 13.6869 12 13.3333 12H11.9999" stroke="#4A5565" stroke-width="1.33333" stroke-linecap="round" stroke-linejoin="round"/>
<path d="M4 5.99999V1.99999C4 1.82318 4.07024 1.65361 4.19526 1.52859C4.32029 1.40357 4.48986 1.33333 4.66667 1.33333H11.3333C11.5101 1.33333 11.6797 1.40357 11.8047 1.52859C11.9298 1.65361 12 1.82318 12 1.99999V5.99999" stroke="#4A5565" stroke-width="1.33333" stroke-linecap="round" stroke-linejoin="round"/>
<path d="M11.3333 9.33333H4.66667C4.29848 9.33333 4 9.63181 4 9.99999V14C4 14.3682 4.29848 14.6667 4.66667 14.6667H11.3333C11.7015 14.6667 12 14.3682 12 14V9.99999C12 9.63181 11.7015 9.33333 11.3333 9.33333Z" stroke="#4A5565" stroke-width="1.33333" stroke-linecap="round" stroke-linejoin="round"/>
</g>
<defs>
<clipPath id="clip0_147_2635">
<rect width="16" height="16" fill="white"/>
</clipPath>
</defs>
</svg>
