<svg width="16" height="16" viewBox="0 0 16 16" fill="none" xmlns="http://www.w3.org/2000/svg">
<path d="M7.68334 1.52997C7.71255 1.47094 7.75768 1.42126 7.81364 1.38652C7.86959 1.35178 7.93414 1.33337 8 1.33337C8.06586 1.33337 8.13041 1.35178 8.18637 1.38652C8.24232 1.42126 8.28746 1.47094 8.31667 1.52997L9.85667 4.6493C9.95812 4.85461 10.1079 5.03224 10.2931 5.16694C10.4783 5.30164 10.6934 5.38938 10.92 5.42264L14.364 5.92664C14.4293 5.93609 14.4906 5.96362 14.541 6.0061C14.5914 6.04859 14.629 6.10434 14.6493 6.16704C14.6697 6.22975 14.6722 6.29691 14.6564 6.36093C14.6406 6.42495 14.6072 6.48327 14.56 6.5293L12.0693 8.95464C11.9051 9.1147 11.7822 9.31229 11.7112 9.53039C11.6403 9.74849 11.6234 9.98056 11.662 10.2066L12.25 13.6333C12.2615 13.6985 12.2545 13.7657 12.2297 13.8271C12.2049 13.8885 12.1633 13.9417 12.1097 13.9806C12.0561 14.0196 11.9927 14.0426 11.9266 14.0472C11.8605 14.0518 11.7945 14.0378 11.736 14.0066L8.65734 12.388C8.45448 12.2815 8.22879 12.2258 7.99967 12.2258C7.77055 12.2258 7.54486 12.2815 7.342 12.388L4.264 14.0066C4.20556 14.0376 4.1396 14.0515 4.07364 14.0468C4.00767 14.0421 3.94435 14.019 3.89087 13.9801C3.83739 13.9412 3.79589 13.8881 3.77111 13.8268C3.74632 13.7655 3.73924 13.6984 3.75067 13.6333L4.338 10.2073C4.3768 9.98112 4.35999 9.7489 4.28903 9.53067C4.21807 9.31243 4.09508 9.11474 3.93067 8.95464L1.44 6.52997C1.3924 6.48399 1.35867 6.42557 1.34265 6.36135C1.32663 6.29714 1.32896 6.22972 1.34939 6.16676C1.36982 6.10381 1.40752 6.04786 1.45819 6.00529C1.50886 5.96272 1.57047 5.93524 1.636 5.92597L5.07934 5.42264C5.30618 5.38964 5.5216 5.30201 5.70706 5.16729C5.89252 5.03258 6.04247 4.85482 6.144 4.6493L7.68334 1.52997Z" stroke="#D1D5DC" stroke-width="1.33333" stroke-linecap="round" stroke-linejoin="round"/>
</svg>
